HIERARCHY
ROOT Hips
{
	OFFSET 0.000000 0.000000 0.000000
	CHANNELS 6 Xposition Yposition Zposition Zrotation Yrotation Xrotation 
	JOINT LHipJoint
	{
		OFFSET 0.000000 0.000000 0.000000
		CHANNELS 3 Zrotation Yrotation Xrotation
		JOINT LeftUpLeg
		{
			OFFSET 1.363060 -1.794630 0.839290
			CHANNELS 3 Zrotation Yrotation Xrotation
			JOINT LeftLeg
			{
				OFFSET 2.448110 -6.726130 0.000000
				CHANNELS 3 Zrotation Yrotation Xrotation
				JOINT LeftFoot
				{
					OFFSET 2.562200 -7.039590 0.000000
					CHANNELS 3 Zrotation Yrotation Xrotation
					JOINT LeftToeBase
					{
						OFFSET 0.157640 -0.433110 2.322550
						CHANNELS 3 Zrotation Yrotation Xrotation
						End Site
						{
							OFFSET 0.000000 0.000000 0.000000
						}
					}
				}
			}
		}
	}
	JOINT RHipJoint
	{
		OFFSET 0.000000 0.000000 0.000000
		CHANNELS 3 Zrotation Yrotation Xrotation
		JOINT RightUpLeg
		{
			OFFSET -1.305520 -1.794630 0.839290
			CHANNELS 3 Zrotation Yrotation Xrotation
			JOINT RightLeg
			{
				OFFSET -2.542530 -6.985550 0.000000
				CHANNELS 3 Zrotation Yrotation Xrotation
				JOINT RightFoot
				{
					OFFSET -2.568260 -7.056230 0.000000
					CHANNELS 3 Zrotation Yrotation Xrotation
					JOINT RightToeBase
					{
						OFFSET -0.164730 -0.452590 2.363150
						CHANNELS 3 Zrotation Yrotation Xrotation
						End Site
						{
							OFFSET 0.000000 0.000000 0.000000
						}
					}
				}
			}
		}
	}
	JOINT LowerBack
	{
		OFFSET 0.000000 0.000000 0.000000
		CHANNELS 3 Zrotation Yrotation Xrotation
		JOINT Spine
		{
			OFFSET 0.028270 2.035590 -0.193380
			CHANNELS 3 Zrotation Yrotation Xrotation
			JOINT Spine1
			{
				OFFSET 0.056720 2.048850 -0.042750
				CHANNELS 3 Zrotation Yrotation Xrotation
				JOINT Neck
				{
					OFFSET 0.000000 0.000000 0.000000
					CHANNELS 3 Zrotation Yrotation Xrotation
					JOINT Neck1
					{
						OFFSET -0.054170 1.746240 0.172020
						CHANNELS 3 Zrotation Yrotation Xrotation
						JOINT Head
						{
							OFFSET 0.104070 1.761360 -0.123970
							CHANNELS 3 Zrotation Yrotation Xrotation
							End Site
							{
								OFFSET 0.000000 0.000000 0.000000
							}
						}
					}
				}
				JOINT LeftShoulder
				{
					OFFSET 0.000000 0.000000 0.000000
					CHANNELS 3 Zrotation Yrotation Xrotation
					JOINT LeftArm
					{
						OFFSET 3.362410 1.200890 -0.311210
						CHANNELS 3 Zrotation Yrotation Xrotation
						JOINT LeftForeArm
						{
							OFFSET 4.983000 -0.000000 -0.000000
							CHANNELS 3 Zrotation Yrotation Xrotation
							JOINT LeftHand
							{
								OFFSET 3.483560 -0.000000 -0.000000
								CHANNELS 3 Zrotation Yrotation Xrotation
								JOINT LeftFingerBase
								{
									OFFSET 0.000000 0.000000 0.000000
									CHANNELS 3 Zrotation Yrotation Xrotation
									JOINT LeftHandIndex1
									{
										OFFSET 0.715260 -0.000000 -0.000000
										CHANNELS 3 Zrotation Yrotation Xrotation
										End Site
										{
											OFFSET 0.000000 0.000000 0.000000
										}
									}
								}
								JOINT LThumb
								{
									OFFSET 0.000000 0.000000 0.000000
									CHANNELS 3 Zrotation Yrotation Xrotation
									End Site
									{
										OFFSET 0.000000 0.000000 0.000000
									}
								}
							}
						}
					}
				}
				JOINT RightShoulder
				{
					OFFSET 0.000000 0.000000 0.000000
					CHANNELS 3 Zrotation Yrotation Xrotation
					JOINT RightArm
					{
						OFFSET -3.136600 1.374050 -0.404650
						CHANNELS 3 Zrotation Yrotation Xrotation
						JOINT RightForeArm
						{
							OFFSET -5.241900 -0.000000 -0.000000
							CHANNELS 3 Zrotation Yrotation Xrotation
							JOINT RightHand
							{
								OFFSET -3.444170 -0.000000 -0.000000
								CHANNELS 3 Zrotation Yrotation Xrotation
								JOINT RightFingerBase
								{
									OFFSET 0.000000 0.000000 0.000000
									CHANNELS 3 Zrotation Yrotation Xrotation
									JOINT RightHandIndex1
									{
										OFFSET -0.622530 -0.000000 -0.000000
										CHANNELS 3 Zrotation Yrotation Xrotation
										End Site
										{
											OFFSET 0.000000 0.000000 0.000000
										}
									}
								}
								JOINT RThumb
								{
									OFFSET 0.000000 0.000000 0.000000
									CHANNELS 3 Zrotation Yrotation Xrotation
									End Site
									{
										OFFSET 0.000000 0.000000 0.000000
									}
								}
							}
						}
					}
				}
			}
		}
	}
}
MOTION
Frames: 8
Frame Time: 0.008333
1.581032 16.640821 1.966919 174.972600 -83.851047 -175.958622 -10.364757 2.422964 0.320890 -13.431795 5.751579 -3.593070 -1.962390 0.923339 29.557606 2.688782 11.690571 -23.522243 -3.816500 0.000000 -23.922500 10.267620 -0.627415 -1.050958 4.964012 -10.072501 -30.945122 0.333185 -3.786794 56.316128 -2.858265 -12.898823 -18.059182 2.155400 0.000000 -8.152400 0.866013 -1.231027 -0.553088 -0.415951 -1.326748 -2.598773 -5.589388 -1.340124 1.990730 8.223518 -12.025235 -9.857264 -2.573050 -0.170389 -0.595397 0.000000 0.000000 0.000000 -3.007799 17.183510 1.163469 -61.949915 -3.486384 4.129050 -3.998455 -27.536836 -0.010959 -3.369238 5.635404 -0.158581 -0.130660 0.010969 -0.000000 0.000000 0.000000 0.000000 0.000000 0.000000 0.000000 12.166651 -7.935677 0.487120 60.943307 -5.137581 -12.270381 4.214771 17.123653 0.012668 0.998253 4.636866 0.035990 0.131984 -0.058855 -0.000000 0.000000 0.000000 0.000000 0.000000 0.000000 0.000000 
1.317728 16.653596 1.935860 176.578616 -84.414358 -177.471489 -10.397638 2.514732 0.380034 -12.943602 5.911526 -2.065130 -1.951325 0.830311 28.167177 2.618762 11.384443 -23.081703 -3.637900 -0.000000 -25.827900 10.045949 -0.501153 -0.891467 5.919756 -10.207356 -32.343248 0.564399 -3.597106 53.655292 -2.961976 -12.997932 -18.072628 2.149400 0.000000 -8.606200 1.301307 -1.455447 -0.790921 -0.337863 -1.590806 -2.624756 -5.682405 -1.595388 2.021511 8.322097 -12.481242 -9.877051 -2.630657 -0.174963 -0.597180 0.000000 0.000000 0.000000 -2.416174 16.471464 1.211667 -60.141305 -4.480084 3.541910 -3.998102 -28.872785 -0.010891 -3.708501 5.659284 -0.175413 -0.135720 0.017503 0.000000 0.000000 0.000000 0.000000 0.000000 0.000000 0.000000 12.600639 -8.596919 0.434652 62.353617 -6.173690 -13.466956 4.247817 16.211386 0.012555 0.796087 4.711913 0.028170 0.131821 -0.057024 -0.000000 0.000000 0.000000 0.000000 0.000000 0.000000 0.000000 
1.052430 16.664085 1.902158 178.265184 -85.003606 -179.057924 -10.430631 2.620401 0.442846 -12.435645 6.115162 -0.571734 -1.940175 0.741574 26.767802 2.530621 11.008252 -22.540576 -3.423000 0.000000 -27.961100 9.821209 -0.395748 -0.726253 6.864487 -10.397057 -33.603424 0.811941 -3.385699 50.721242 -3.039908 -12.935171 -17.988667 2.092600 0.000000 -9.344600 1.689699 -1.697357 -1.049079 -0.264979 -1.869836 -2.652974 -5.766685 -1.865389 2.058703 8.433818 -12.980894 -9.913852 -2.678591 -0.178584 -0.602904 0.000000 0.000000 0.000000 -1.816636 15.759716 1.269153 -58.245518 -5.319648 2.989658 -3.977904 -30.259322 -0.010592 -4.064428 5.655916 -0.192446 -0.139530 0.023589 0.000000 0.000000 0.000000 0.000000 0.000000 0.000000 0.000000 13.032739 -9.305077 0.388676 63.727499 -7.229568 -14.459101 4.275504 15.451797 0.012431 0.682746 4.765975 0.023650 0.130980 -0.054773 -0.000000 0.000000 0.000000 0.000000 0.000000 0.000000 0.000000 
0.785256 16.672043 1.865795 -179.945479 -85.623841 179.248442 -10.461789 2.740243 0.504550 -11.908314 6.353337 0.904021 -1.929065 0.660482 25.372496 2.426031 10.571055 -21.899943 -3.177600 0.000000 -30.217000 9.599286 -0.308847 -0.562052 7.791009 -10.654787 -34.707441 1.076428 -3.150036 47.532225 -3.086189 -12.700614 -17.811983 1.987600 -0.000000 -10.432600 2.026593 -1.959139 -1.312478 -0.197766 -2.165244 -2.681320 -5.840963 -2.151707 2.100195 8.554327 -13.511787 -9.966343 -2.716626 -0.181213 -0.612362 0.000000 0.000000 0.000000 -1.217268 15.053008 1.336805 -56.258390 -6.005511 2.477585 -3.936850 -31.685503 -0.010034 -4.426188 5.620417 -0.208486 -0.141959 0.029338 0.000000 0.000000 0.000000 0.000000 0.000000 0.000000 0.000000 13.455384 -10.047512 0.348757 65.074671 -8.321138 -15.242651 4.300001 14.860652 0.012280 0.674143 4.788987 0.023432 0.129472 -0.052062 -0.000000 0.000000 0.000000 0.000000 0.000000 0.000000 0.000000 
0.516391 16.677440 1.826908 -177.932371 -86.280631 177.316367 -10.490190 2.872881 0.560108 -11.357526 6.614423 2.378122 -1.916833 0.590176 23.992710 2.306819 10.084524 -21.153063 -2.906499 -0.000000 -32.529800 9.385253 -0.237391 -0.404686 8.695002 -10.988546 -35.640072 1.357629 -2.886640 44.106421 -3.096898 -12.302231 -17.537543 1.838900 -0.000000 -11.981900 2.311547 -2.242562 -1.566235 -0.135662 -2.478132 -2.705776 -5.903698 -2.455495 2.151104 8.683247 -14.090921 -10.041765 -2.742616 -0.182527 -0.627707 0.000000 0.000000 0.000000 -0.633087 14.377521 1.412945 -54.176002 -6.573553 2.018511 -3.875403 -33.123059 -0.009209 -4.779326 5.551260 -0.222631 -0.142950 0.034920 0.000000 0.000000 0.000000 0.000000 0.000000 0.000000 0.000000 13.867214 -10.843930 0.312984 66.387665 -9.421391 -15.746557 4.322288 14.427052 0.012097 0.756922 4.784029 0.027015 0.127443 -0.048812 -0.000000 0.000000 0.000000 0.000000 0.000000 0.000000 0.000000 
0.246077 16.680346 1.785728 -175.393637 -86.979091 174.833657 -10.515987 3.015311 0.605174 -10.776657 6.885612 3.863894 -1.901157 0.533193 22.640443 2.175294 9.562051 -20.291871 -2.615000 0.000000 -34.858200 9.182986 -0.178505 -0.257501 9.572811 -11.399483 -36.388482 1.653737 -2.591405 40.462524 -3.070326 -11.764912 -17.152226 1.652500 0.000000 -14.132300 2.547448 -2.547858 -1.799092 -0.077698 -2.808541 -2.724467 -5.954485 -2.777033 2.210630 8.817802 -14.709743 -10.138525 -2.757133 -0.182553 -0.648675 0.000000 0.000000 0.000000 -0.072310 13.740203 1.496988 -52.001668 -7.039576 1.609730 -3.794391 -34.546410 -0.008129 -5.109128 5.451927 -0.233984 -0.142492 0.040514 0.000000 0.000000 0.000000 0.000000 0.000000 0.000000 0.000000 14.267114 -11.686540 0.280295 67.665806 -10.537156 -15.974585 4.343367 14.147614 0.011860 0.927221 4.747395 0.033999 0.124926 -0.045033 -0.000000 0.000000 0.000000 0.000000 0.000000 0.000000 0.000000 
-0.025568 16.680956 1.742579 -171.542955 -87.724548 171.007710 -10.541253 3.162775 0.636573 -10.157641 7.152939 5.371024 -1.878158 0.491010 21.327987 2.034182 9.017713 -19.307790 -2.308800 0.000000 -37.154900 8.993386 -0.130200 -0.120740 10.418263 -11.879940 -36.941796 1.961068 -2.260276 36.622652 -3.008186 -11.129548 -16.647498 1.437700 0.000000 -16.919800 2.737300 -2.874805 -2.004522 -0.022655 -3.156344 -2.737052 -5.993586 -3.116585 2.275429 8.954890 -15.347284 -10.249950 -2.762381 -0.181530 -0.673593 0.000000 0.000000 0.000000 0.463134 13.136250 1.588162 -49.747516 -7.406991 1.241315 -3.695325 -35.932746 -0.006833 -5.401857 5.330676 -0.242044 -0.140654 0.046276 0.000000 0.000000 0.000000 0.000000 0.000000 0.000000 0.000000 14.655960 -12.554545 0.250131 68.912118 -11.688836 -15.983446 4.364082 14.018712 0.011532 1.185313 4.672005 0.044183 0.121897 -0.040803 -0.000000 0.000000 0.000000 0.000000 0.000000 0.000000 0.000000 
-0.298436 16.679625 1.697734 -163.895699 -88.527333 163.350031 -10.575034 3.308213 0.651606 -9.493038 7.403036 6.901721 -1.841123 0.463886 20.067877 1.886192 8.465900 -18.185955 -1.992500 -0.000000 -39.461900 8.807064 -0.092499 0.008356 11.217558 -12.412350 -37.291256 2.272369 -1.889838 32.614878 -2.915938 -10.451921 -16.017637 1.205200 0.000000 -20.316200 2.875026 -3.226368 -2.179480 0.030107 -3.524098 -2.742872 -6.019762 -3.477192 2.346737 9.094701 -15.999076 -10.373681 -2.759340 -0.179535 -0.701935 0.000000 0.000000 0.000000 0.970896 12.569637 1.683531 -47.428783 -7.698267 0.910648 -3.581036 -37.254306 -0.005388 -5.644903 5.198515 -0.246714 -0.137628 0.052313 0.000000 0.000000 0.000000 0.000000 0.000000 0.000000 0.000000 15.039084 -13.445938 0.221328 70.120403 -12.872545 -15.799517 4.384065 14.019594 0.011090 1.515919 4.557213 0.056467 0.118373 -0.036173 -0.000000 0.000000 0.000000 0.000000 0.000000 0.000000 0.000000 
